<svg width="100" height="100" viewBox="0 0 752 643" fill="none" xmlns="http://www.w3.org/2000/svg">
  <g clip-path="url(#clip0_291_530)">
    <path d="M752 0H0V643H752V0Z" fill="white" />
    <path
      d="M337.679 514L284.687 288.592V514H238.607V201.04H306.959L356.879 412.624L404.495 201.04H472.463V514H426.383V289.36L373.775 514H337.679ZM485.447 514V288.592H533.063V514H485.447Z"
      fill="#0B0B0B" />
    <path
      d="M509.5 282C503.267 282 497.29 279.524 492.883 275.117C488.476 270.71 486 264.733 486 258.5C486 252.267 488.476 246.29 492.883 241.883C497.29 237.476 503.267 235 509.5 235L509.5 258.5L509.5 282Z"
      fill="#1DAAFC" />
    <mask id="path-4-inside-1_291_530" fill="white">
      <path
        d="M509.5 282C515.733 282 521.71 279.524 526.117 275.117C530.524 270.71 533 264.733 533 258.5C533 252.267 530.524 246.29 526.117 241.883C521.71 237.476 515.733 235 509.5 235L509.5 258.5L509.5 282Z" />
    </mask>
    <path
      d="M509.5 282C515.733 282 521.71 279.524 526.117 275.117C530.524 270.71 533 264.733 533 258.5C533 252.267 530.524 246.29 526.117 241.883C521.71 237.476 515.733 235 509.5 235L509.5 258.5L509.5 282Z"
      stroke="#1DAAFC" stroke-width="4" mask="url(#path-4-inside-1_291_530)" />
    <circle cx="342.5" cy="168.5" r="22.5" stroke="#FC8B00" stroke-width="2" />
    <circle cx="371.5" cy="168.5" r="22.5" stroke="#FC8B00" stroke-width="2" />
    <circle cx="569.5" cy="490.5" r="23.5" fill="#FC3E6B" />
  </g>
  <defs>
    <clipPath id="clip0_291_530">
      <rect width="752" height="643" fill="white" />
    </clipPath>
  </defs>
</svg>