<svg xmlns="http://www.w3.org/2000/svg" xmlns:xlink="http://www.w3.org/1999/xlink" version="1.1" width="1000" height="1000" viewBox="0 0 1000 1000" xml:space="preserve">
<desc>Created with Fabric.js 3.5.0</desc>
<defs>
</defs>
<rect x="0" y="0" width="100%" height="100%" fill="#ffffff"/>
<g transform="matrix(1.2089 0 0 1.2089 -694.4434 405.5564)" id="214809" clip-path="url(#CLIPPATH_1)">
<clipPath id="CLIPPATH_1">
	<rect transform="matrix(1 0 0 1 0 0)" id="clip0_291_530" x="-376" y="-321.5" rx="0" ry="0" width="752" height="643"/>
</clipPath>
<path style="stroke: none; stroke-width: 1; stroke-dasharray: none; stroke-linecap: butt; stroke-dashoffset: 0; stroke-linejoin: miter; stroke-miterlimit: 4; is-custom-font: none; font-file-url: none; fill: rgb(255,255,255); fill-rule: nonzero; opacity: 1;" transform=" translate(-376, -321.5)" d="M 752 0 H 0 V 643 H 752 V 0 Z" stroke-linecap="round"/>
</g>
<g transform="matrix(1.2089 0 0 1.2089 511.8899 543.5449)" id="109044" clip-path="url(#CLIPPATH_2)">
<clipPath id="CLIPPATH_2">
	<rect transform="matrix(1 0 0 1 -9.835 -36.02)" id="clip0_291_530" x="-376" y="-321.5" rx="0" ry="0" width="752" height="643"/>
</clipPath>
<path style="stroke: none; stroke-width: 1; stroke-dasharray: none; stroke-linecap: butt; stroke-dashoffset: 0; stroke-linejoin: miter; stroke-miterlimit: 4; is-custom-font: none; font-file-url: none; fill: rgb(11,11,11); fill-rule: nonzero; opacity: 1;" transform=" translate(-385.835, -357.52)" d="M 337.679 514 L 284.687 288.592 V 514 H 238.607 V 201.04 H 306.959 L 356.879 412.624 L 404.495 201.04 H 472.463 V 514 H 426.383 V 289.36 L 373.775 514 H 337.679 Z M 485.447 514 V 288.592 H 533.063 V 514 H 485.447 Z" stroke-linecap="round"/>
</g>
<g transform="matrix(1.2089 0 0 1.2089 647.1833 423.8395)" id="453351" clip-path="url(#CLIPPATH_3)">
<clipPath id="CLIPPATH_3">
	<rect transform="matrix(1 0 0 1 -121.75 63)" id="clip0_291_530" x="-376" y="-321.5" rx="0" ry="0" width="752" height="643"/>
</clipPath>
<path style="stroke: none; stroke-width: 1; stroke-dasharray: none; stroke-linecap: butt; stroke-dashoffset: 0; stroke-linejoin: miter; stroke-miterlimit: 4; is-custom-font: none; font-file-url: none; fill: rgb(29,170,252); fill-rule: nonzero; opacity: 1;" transform=" translate(-497.75, -258.5)" d="M 509.5 282 C 503.267 282 497.29 279.524 492.883 275.117 C 488.476 270.71 486 264.733 486 258.5 C 486 252.267 488.476 246.29 492.883 241.883 C 497.29 237.476 503.267 235 509.5 235 L 509.5 258.5 L 509.5 282 Z" stroke-linecap="round"/>
</g>
<g transform="matrix(1.2089 0 0 1.2089 675.5924 423.8396)" id="91975" clip-path="url(#CLIPPATH_4)">
<clipPath id="CLIPPATH_4">
	<rect transform="matrix(1 0 0 1 -145.25 63)" id="clip0_291_530" x="-376" y="-321.5" rx="0" ry="0" width="752" height="643"/>
</clipPath>
<path style="stroke: rgb(29,170,252); stroke-width: 4; stroke-dasharray: none; stroke-linecap: butt; stroke-dashoffset: 0; stroke-linejoin: miter; stroke-miterlimit: 4; is-custom-font: none; font-file-url: none; fill: none; fill-rule: nonzero; opacity: 1;" transform=" translate(-521.25, -258.5)" d="M 509.5 282 C 515.733 282 521.71 279.524 526.117 275.117 C 530.524 270.71 533 264.733 533 258.5 C 533 252.267 530.524 246.29 526.117 241.883 C 521.71 237.476 515.733 235 509.5 235 L 509.5 258.5 L 509.5 282 Z" stroke-linecap="round"/>
</g>
<g transform="matrix(1.2089 0 0 1.2089 459.502 315.0387)" id="606085" clip-path="url(#CLIPPATH_5)">
<clipPath id="CLIPPATH_5">
	<rect transform="matrix(1 0 0 1 33.5 153)" id="clip0_291_530" x="-376" y="-321.5" rx="0" ry="0" width="752" height="643"/>
</clipPath>
<circle style="stroke: rgb(252,139,0); stroke-width: 2; stroke-dasharray: none; stroke-linecap: butt; stroke-dashoffset: 0; stroke-linejoin: miter; stroke-miterlimit: 4; is-custom-font: none; font-file-url: none; fill: none; fill-rule: nonzero; opacity: 1;" cx="0" cy="0" r="22.5"/>
</g>
<g transform="matrix(1.2089 0 0 1.2089 494.56 315.0387)" id="380382" clip-path="url(#CLIPPATH_6)">
<clipPath id="CLIPPATH_6">
	<rect transform="matrix(1 0 0 1 4.5 153)" id="clip0_291_530" x="-376" y="-321.5" rx="0" ry="0" width="752" height="643"/>
</clipPath>
<circle style="stroke: rgb(252,139,0); stroke-width: 2; stroke-dasharray: none; stroke-linecap: butt; stroke-dashoffset: 0; stroke-linejoin: miter; stroke-miterlimit: 4; is-custom-font: none; font-file-url: none; fill: none; fill-rule: nonzero; opacity: 1;" cx="0" cy="0" r="22.5"/>
</g>
<g transform="matrix(1.2089 0 0 1.2089 733.9217 704.3037)" id="601916" clip-path="url(#CLIPPATH_7)">
<clipPath id="CLIPPATH_7">
	<rect transform="matrix(1 0 0 1 -193.5 -169)" id="clip0_291_530" x="-376" y="-321.5" rx="0" ry="0" width="752" height="643"/>
</clipPath>
<circle style="stroke: none; stroke-width: 1; stroke-dasharray: none; stroke-linecap: butt; stroke-dashoffset: 0; stroke-linejoin: miter; stroke-miterlimit: 4; is-custom-font: none; font-file-url: none; fill: rgb(252,62,107); fill-rule: nonzero; opacity: 1;" cx="0" cy="0" r="23.5"/>
</g>
</svg>