<svg xmlns="http://www.w3.org/2000/svg" xmlns:xlink="http://www.w3.org/1999/xlink" version="1.1" width="1000" height="1000" viewBox="0 0 1000 1000" xml:space="preserve">
<desc>Created with Fabric.js 3.5.0</desc>
<defs>
</defs>
<rect x="0" y="0" width="100%" height="100%" fill="#ffffff"/>
<g transform="matrix(1.2089 0 0 1.2089 1683.3342 305.5564)" id="362552" clip-path="url(#CLIPPATH_1)">
<clipPath id="CLIPPATH_1">
	<rect transform="matrix(1 0 0 1 0 0)" id="clip0_291_530" x="-376" y="-321.5" rx="0" ry="0" width="752" height="643"/>
</clipPath>
<path style="stroke: none; stroke-width: 1; stroke-dasharray: none; stroke-linecap: butt; stroke-dashoffset: 0; stroke-linejoin: miter; stroke-miterlimit: 4; is-custom-font: none; font-file-url: none; fill: rgb(255,255,255); fill-rule: nonzero; opacity: 1;" transform=" translate(-376, -321.5)" d="M 752 0 H 0 V 643 H 752 V 0 Z" stroke-linecap="round"/>
</g>
<g transform="matrix(2.6287 0 0 2.6287 421.2146 572.9937)" id="756068" clip-path="url(#CLIPPATH_2)">
<clipPath id="CLIPPATH_2">
	<rect transform="matrix(1 0 0 1 -9.835 -36.02)" id="clip0_291_530" x="-376" y="-321.5" rx="0" ry="0" width="752" height="643"/>
</clipPath>
<path style="stroke: none; stroke-width: 1; stroke-dasharray: none; stroke-linecap: butt; stroke-dashoffset: 0; stroke-linejoin: miter; stroke-miterlimit: 4; is-custom-font: none; font-file-url: none; fill: rgb(11,11,11); fill-rule: nonzero; opacity: 1;" transform=" translate(-385.835, -357.52)" d="M 337.679 514 L 284.687 288.592 V 514 H 238.607 V 201.04 H 306.959 L 356.879 412.624 L 404.495 201.04 H 472.463 V 514 H 426.383 V 289.36 L 373.775 514 H 337.679 Z M 485.447 514 V 288.592 H 533.063 V 514 H 485.447 Z" stroke-linecap="round"/>
</g>
<g transform="matrix(2.6287 0 0 2.6287 715.4156 312.7013)" id="863003" clip-path="url(#CLIPPATH_3)">
<clipPath id="CLIPPATH_3">
	<rect transform="matrix(1 0 0 1 -121.75 63)" id="clip0_291_530" x="-376" y="-321.5" rx="0" ry="0" width="752" height="643"/>
</clipPath>
<path style="stroke: none; stroke-width: 1; stroke-dasharray: none; stroke-linecap: butt; stroke-dashoffset: 0; stroke-linejoin: miter; stroke-miterlimit: 4; is-custom-font: none; font-file-url: none; fill: rgb(29,170,252); fill-rule: nonzero; opacity: 1;" transform=" translate(-497.75, -258.5)" d="M 509.5 282 C 503.267 282 497.29 279.524 492.883 275.117 C 488.476 270.71 486 264.733 486 258.5 C 486 252.267 488.476 246.29 492.883 241.883 C 497.29 237.476 503.267 235 509.5 235 L 509.5 258.5 L 509.5 282 Z" stroke-linecap="round"/>
</g>
<g transform="matrix(2.6287 0 0 2.6287 777.1909 312.7012)" id="390502" clip-path="url(#CLIPPATH_4)">
<clipPath id="CLIPPATH_4">
	<rect transform="matrix(1 0 0 1 -145.25 63)" id="clip0_291_530" x="-376" y="-321.5" rx="0" ry="0" width="752" height="643"/>
</clipPath>
<path style="stroke: rgb(29,170,252); stroke-width: 4; stroke-dasharray: none; stroke-linecap: butt; stroke-dashoffset: 0; stroke-linejoin: miter; stroke-miterlimit: 4; is-custom-font: none; font-file-url: none; fill: none; fill-rule: nonzero; opacity: 1;" transform=" translate(-521.25, -258.5)" d="M 509.5 282 C 515.733 282 521.71 279.524 526.117 275.117 C 530.524 270.71 533 264.733 533 258.5 C 533 252.267 530.524 246.29 526.117 241.883 C 521.71 237.476 515.733 235 509.5 235 L 509.5 258.5 L 509.5 282 Z" stroke-linecap="round"/>
</g>
<g transform="matrix(2.6287 0 0 2.6287 307.3031 76.1146)" id="447252" clip-path="url(#CLIPPATH_5)">
<clipPath id="CLIPPATH_5">
	<rect transform="matrix(1 0 0 1 33.5 153)" id="clip0_291_530" x="-376" y="-321.5" rx="0" ry="0" width="752" height="643"/>
</clipPath>
<circle style="stroke: rgb(252,139,0); stroke-width: 2; stroke-dasharray: none; stroke-linecap: butt; stroke-dashoffset: 0; stroke-linejoin: miter; stroke-miterlimit: 4; is-custom-font: none; font-file-url: none; fill: none; fill-rule: nonzero; opacity: 1;" cx="0" cy="0" r="22.5"/>
</g>
<g transform="matrix(2.6287 0 0 2.6287 383.5367 76.1146)" id="955574" clip-path="url(#CLIPPATH_6)">
<clipPath id="CLIPPATH_6">
	<rect transform="matrix(1 0 0 1 4.5 153)" id="clip0_291_530" x="-376" y="-321.5" rx="0" ry="0" width="752" height="643"/>
</clipPath>
<circle style="stroke: rgb(252,139,0); stroke-width: 2; stroke-dasharray: none; stroke-linecap: butt; stroke-dashoffset: 0; stroke-linejoin: miter; stroke-miterlimit: 4; is-custom-font: none; font-file-url: none; fill: none; fill-rule: nonzero; opacity: 1;" cx="0" cy="0" r="22.5"/>
</g>
<g transform="matrix(2.6287 0 0 2.6287 904.0272 922.5691)" id="45015" clip-path="url(#CLIPPATH_7)">
<clipPath id="CLIPPATH_7">
	<rect transform="matrix(1 0 0 1 -193.5 -169)" id="clip0_291_530" x="-376" y="-321.5" rx="0" ry="0" width="752" height="643"/>
</clipPath>
<circle style="stroke: none; stroke-width: 1; stroke-dasharray: none; stroke-linecap: butt; stroke-dashoffset: 0; stroke-linejoin: miter; stroke-miterlimit: 4; is-custom-font: none; font-file-url: none; fill: rgb(252,62,107); fill-rule: nonzero; opacity: 1;" cx="0" cy="0" r="23.5"/>
</g>
</svg>